# xmcd
#
# Track frame offsets:
#	150
#	18483
#	36723
#	51963
#	71609
#	93892
#	117525
#	137956
#	158783
#
# Disc length: 2443 seconds
#
# Revision: 2
# Processed by: cddbd v1.5.2PL0 Copyright (c) Steve Scherf et al.
# Submitted via: audiograbber 1.83.01
#
DISCID=82098909
DTITLE=Ana Popovic - Trilogy - Morning - Vol. 1
DYEAR=2016
DGENRE=Blues
TTITLE0=Love You Tonight
TTITLE1=She Was a Doorman
TTITLE2=Show You How Strong You Are
TTITLE3=Fencewalk
TTITLE4=Train
TTITLE5=If Tomorrow Was Today
TTITLE6=Long Road Down
TTITLE7=Hook Me Up
TTITLE8=Too Late
EXTD=
EXTT0=
EXTT1=
EXTT2=
EXTT3=
EXTT4=
EXTT5=
EXTT6=
EXTT7=
EXTT8=
PLAYORDER=
